<svg xmlns="http://www.w3.org/2000/svg" xmlns:xlink="http://www.w3.org/1999/xlink" width="1017" height="364"
    viewBox="0 0 1017 364">
    <defs>
        <clipPath id="b">
            <rect width="1017" height="364" />
        </clipPath>
    </defs>
    <g id="a" clip-path="url(#b)">
        <rect width="1017" height="364" fill="transparent" />
        <g transform="translate(-21.977 -7.146)">
            <rect width="213.727" height="213.727" transform="translate(31.79 16.916)" fill="#ffe124" />
            <g transform="translate(82.693 101.457)">
                <path
                    d="M165.1,209.924,120.6,177.06l43.026-31.138L70.215,80.734l.007,45.69L92.9,141.3V123.928l30.1,21.98L70.215,183.836l.007,93.736ZM91.966,232.635V197.289l8.29-5.965s15.726,12.515,23.371,18.6Z"
                    transform="translate(-70.215 -80.734)" fill="#151b3d" />
            </g>
            <g transform="translate(82.699 172.076)">
                <path
                    d="M215.275,192.614,70.22,300.076V271.73l110.01-79.084-43.353-32.9,33.738-25.708L189.8,147.09l-19.626,12.66Z"
                    transform="translate(-70.22 -134.042)" fill="#da000d" />
            </g>
            <g transform="translate(51.059 78.548)">
                <path
                    d="M100.67,160.649,77.976,173.291l-9.259-5.352V330.056l-22.381,16.3.053-282.92L68.717,78.965,68.412,140Z"
                    transform="translate(-46.336 -63.44)" fill="#da000d" />
            </g>
            <g transform="translate(879.837 127.414)">
                <rect width="15.179" height="14.347" fill="#da000d" />
            </g>
            <g transform="translate(674.647 238.332)">
                <path d="M517.064,185.2h14.479v2.759H520.053v6.527h10.259v2.79H520.053v6.616h11.922v2.759H517.064Z"
                    transform="translate(-517.064 -183.686)" fill="#151b3d" />
                <path
                    d="M537.822,192.243l.246,2.758-.155-.236a5.471,5.471,0,0,1,2.017-2.211,5.616,5.616,0,0,1,3.035-.816,4.9,4.9,0,0,1,1.879.342,3.645,3.645,0,0,1,1.372.949,2.974,2.974,0,0,1,.693,1.469l-.154.118a5.32,5.32,0,0,1,2.048-2.12,5.425,5.425,0,0,1,2.757-.758,4.141,4.141,0,0,1,2.973,1.039,3.7,3.7,0,0,1,1.155,2.642v9.108h-2.9v-8.1a2.862,2.862,0,0,0-.477-1.587,1.839,1.839,0,0,0-1.557-.668,3.3,3.3,0,0,0-1.987.639,4.2,4.2,0,0,0-1.354,1.663,5.535,5.535,0,0,0-.509,2.239v5.816h-2.9v-8.1a2.737,2.737,0,0,0-.509-1.587,1.932,1.932,0,0,0-1.587-.668,3.232,3.232,0,0,0-1.971.639,4.377,4.377,0,0,0-1.355,1.676,5.194,5.194,0,0,0-.493,2.256v5.785h-2.9V192.243Z"
                    transform="translate(-511.174 -181.563)" fill="#151b3d" />
                <path
                    d="M565.469,204.821a6.3,6.3,0,0,1-2.787-.652,4.918,4.918,0,0,1-2.049-1.75l.155-.861v8.872h-2.865V192.064h2.5l.4,3.145-.307-.889a7.247,7.247,0,0,1,2.342-1.855,6.84,6.84,0,0,1,3.173-.727,6.384,6.384,0,0,1,3.219.816,5.9,5.9,0,0,1,2.264,2.314,7.058,7.058,0,0,1,.832,3.485,6.468,6.468,0,0,1-.893,3.427A5.96,5.96,0,0,1,569,204.037,7.715,7.715,0,0,1,565.469,204.821Zm-.555-2.2a4.66,4.66,0,0,0,2.249-.548,4.494,4.494,0,0,0,1.649-1.514,3.892,3.892,0,0,0,.631-2.179,4.172,4.172,0,0,0-.586-2.211,4.247,4.247,0,0,0-1.555-1.513,4.337,4.337,0,0,0-2.173-.55,4.853,4.853,0,0,0-2,.4,4,4,0,0,0-1.48,1.113,4.269,4.269,0,0,0-.832,1.69v2.078a3.606,3.606,0,0,0,.741,1.631,4.171,4.171,0,0,0,1.464,1.172A4.226,4.226,0,0,0,564.914,202.626Z"
                    transform="translate(-503.796 -181.563)" fill="#151b3d" />
                <path
                    d="M574.409,198.265a6.234,6.234,0,0,1,.909-3.322,6.415,6.415,0,0,1,2.526-2.343,7.711,7.711,0,0,1,3.68-.861,7.443,7.443,0,0,1,3.635.861,6.274,6.274,0,0,1,2.449,2.343,6.476,6.476,0,0,1-2.449,9,7.394,7.394,0,0,1-3.664.874,7.879,7.879,0,0,1-3.651-.815,6.185,6.185,0,0,1-3.435-5.741Zm2.9.03a4.255,4.255,0,0,0,2.034,3.679,3.945,3.945,0,0,0,2.094.563,4,4,0,0,0,2.125-.563,4.113,4.113,0,0,0,1.464-1.527,4.561,4.561,0,0,0,0-4.3,4.24,4.24,0,0,0-1.464-1.543,3.919,3.919,0,0,0-2.125-.578,3.874,3.874,0,0,0-2.11.592,4.3,4.3,0,0,0-2.018,3.68Z"
                    transform="translate(-498.442 -181.563)" fill="#151b3d" />
                <path
                    d="M599.808,192.119,603.6,200.4l-.586.06,3.512-8.337h2.8l-5.853,13.023-4.1-8.425-3.758,8.425-5.886-13.023h2.835l3.944,8.662-.987-.207,2.835-6.349-1.048-2.106Z"
                    transform="translate(-493.466 -181.439)" fill="#151b3d" />
                <path
                    d="M616.345,204.821a7.846,7.846,0,0,1-3.758-.844,6.13,6.13,0,0,1-2.435-2.314,6.539,6.539,0,0,1-.861-3.367,5.9,5.9,0,0,1,.97-3.295,7.246,7.246,0,0,1,6.145-3.263,6.213,6.213,0,0,1,4.19,1.425,7.286,7.286,0,0,1,2.28,3.916l-10.536,3.56-.678-1.632,8.595-3.056-.586.416a4.013,4.013,0,0,0-1.232-1.692,3.419,3.419,0,0,0-2.248-.711,4.021,4.021,0,0,0-2.08.534,3.854,3.854,0,0,0-1.432,1.469,4.372,4.372,0,0,0-.525,2.179,4.54,4.54,0,0,0,.539,2.226,3.86,3.86,0,0,0,1.51,1.527,4.381,4.381,0,0,0,2.2.55,4.548,4.548,0,0,0,1.618-.3,7.327,7.327,0,0,0,1.494-.771l1.294,2.047a8.925,8.925,0,0,1-2.141,1.008A7.472,7.472,0,0,1,616.345,204.821Z"
                    transform="translate(-487.115 -181.563)" fill="#151b3d" />
                <path
                    d="M628.341,192.243l.278,3.561-.125-.5a5.426,5.426,0,0,1,1.419-1.9,6.838,6.838,0,0,1,1.971-1.216,5.619,5.619,0,0,1,1.786-.445l-.123,2.79a4.3,4.3,0,0,0-2.573.518,4.88,4.88,0,0,0-1.724,1.661,4.126,4.126,0,0,0-.632,2.211v5.608h-2.865V192.243Z"
                    transform="translate(-481.769 -181.563)" fill="#151b3d" />
                <path
                    d="M637.893,189.138a1.368,1.368,0,0,1,.539-1.1,1.816,1.816,0,0,1,1.186-.445,1.76,1.76,0,0,1,1.17.445,1.427,1.427,0,0,1,0,2.211,1.8,1.8,0,0,1-1.17.429,1.856,1.856,0,0,1-1.186-.429A1.356,1.356,0,0,1,637.893,189.138Zm.184,4.45h2.9v12.283h-2.9Z"
                    transform="translate(-477.827 -182.908)" fill="#151b3d" />
                <path
                    d="M650.092,192.235l.216,3-.093-.474a4.619,4.619,0,0,1,1.971-2.182,6.271,6.271,0,0,1,3.236-.815,4.273,4.273,0,0,1,2.941,1.023,3.48,3.48,0,0,1,1.186,2.655v9.08h-2.9v-8.13a2.466,2.466,0,0,0-.6-1.617,2.264,2.264,0,0,0-1.773-.637,3.555,3.555,0,0,0-1.986.593,4,4,0,0,0-1.417,1.632,5.4,5.4,0,0,0-.509,2.4v5.756h-2.895V192.235Z"
                    transform="translate(-474.716 -181.555)" fill="#151b3d" />
                <path
                    d="M670.331,210.637a8.8,8.8,0,0,1-2.51-.326,7.732,7.732,0,0,1-1.971-.89,18.645,18.645,0,0,1-1.71-1.245l1.694-1.9a9.265,9.265,0,0,0,2.064,1.395,5.324,5.324,0,0,0,2.342.5,5.855,5.855,0,0,0,2.448-.461,3.43,3.43,0,0,0,1.51-1.26,3.61,3.61,0,0,0,.538-1.869l.032-3.324.246.534a4.752,4.752,0,0,1-2,2.151,6.658,6.658,0,0,1-3.512.874,6.245,6.245,0,0,1-3.2-.86,6.66,6.66,0,0,1-2.373-2.329,6.244,6.244,0,0,1-.893-3.308,6.313,6.313,0,0,1,.925-3.411,6.622,6.622,0,0,1,2.448-2.33,6.728,6.728,0,0,1,3.312-.845,7.1,7.1,0,0,1,3.1.668,4.921,4.921,0,0,1,2.078,1.7l-.183.5.277-2.373h2.649v12.372a5.473,5.473,0,0,1-.878,3.026,6.175,6.175,0,0,1-2.528,2.182A8.7,8.7,0,0,1,670.331,210.637Zm-4.4-12.372a4.059,4.059,0,0,0,.6,2.166,4.368,4.368,0,0,0,1.6,1.543,4.417,4.417,0,0,0,2.2.563,5.05,5.05,0,0,0,2.049-.4,4.235,4.235,0,0,0,1.523-1.113,4.1,4.1,0,0,0,.864-1.572v-2.463a3.745,3.745,0,0,0-.925-1.543,4.854,4.854,0,0,0-1.541-1.037,4.919,4.919,0,0,0-1.971-.385,4.5,4.5,0,0,0-2.2.548,4.323,4.323,0,0,0-1.6,1.5A4.02,4.02,0,0,0,665.926,198.265Z"
                    transform="translate(-469.665 -181.563)" fill="#151b3d" />
                <path d="M691.493,185.2H706.31v2.759h-5.976v18.692h-2.989V187.957h-5.853Z"
                    transform="translate(-460.422 -183.686)" fill="#151b3d" />
                <path
                    d="M709.235,207.02V184.057h2.835v13.528l-.062-.5a5.2,5.2,0,0,1,1.987-2.018,6.1,6.1,0,0,1,3.189-.8,4.274,4.274,0,0,1,2.942,1.023,3.48,3.48,0,0,1,1.186,2.655v9.08h-2.9v-8.13a2.473,2.473,0,0,0-.6-1.617,2.265,2.265,0,0,0-1.772-.637,3.488,3.488,0,0,0-1.986.609,4.1,4.1,0,0,0-1.417,1.645,5.331,5.331,0,0,0-.509,2.374v5.756Z"
                    transform="translate(-454.661 -184.057)" fill="#151b3d" />
                <path
                    d="M731.847,204.821a7.846,7.846,0,0,1-3.758-.844,6.13,6.13,0,0,1-2.435-2.314,6.539,6.539,0,0,1-.861-3.367,5.9,5.9,0,0,1,.97-3.295,7.246,7.246,0,0,1,6.145-3.263,6.214,6.214,0,0,1,4.19,1.425,7.286,7.286,0,0,1,2.28,3.916l-10.536,3.56-.678-1.632,8.595-3.056-.586.416a4.013,4.013,0,0,0-1.232-1.692,3.419,3.419,0,0,0-2.248-.711,4.021,4.021,0,0,0-2.08.534,3.853,3.853,0,0,0-1.432,1.469,4.371,4.371,0,0,0-.525,2.179,4.54,4.54,0,0,0,.539,2.226,3.859,3.859,0,0,0,1.51,1.527,4.381,4.381,0,0,0,2.2.55,4.548,4.548,0,0,0,1.618-.3,7.327,7.327,0,0,0,1.494-.771l1.294,2.047a8.927,8.927,0,0,1-2.141,1.008A7.473,7.473,0,0,1,731.847,204.821Z"
                    transform="translate(-449.608 -181.563)" fill="#151b3d" />
                <path d="M752.7,185.2h2.989v21.451H752.7Z" transform="translate(-440.548 -183.686)" fill="#151b3d" />
                <path
                    d="M762.2,199.47a1.609,1.609,0,0,1,1.125-.476,1.546,1.546,0,0,1,1.061.476,1.49,1.49,0,0,1,.509,1.127,1.42,1.42,0,0,1-.509,1.142,1.628,1.628,0,0,1-1.061.431,1.7,1.7,0,0,1-1.125-.431,1.42,1.42,0,0,1-.509-1.142A1.49,1.49,0,0,1,762.2,199.47Z"
                    transform="translate(-437.625 -179.207)" fill="#151b3d" />
                <path d="M766.789,185.2h14.817v2.759H775.63v18.692h-2.989V187.957h-5.853Z"
                    transform="translate(-435.971 -183.686)" fill="#151b3d" />
                <path
                    d="M781.251,199.47a1.609,1.609,0,0,1,1.125-.476,1.546,1.546,0,0,1,1.061.476,1.49,1.49,0,0,1,.509,1.127,1.42,1.42,0,0,1-.509,1.142,1.628,1.628,0,0,1-1.061.431,1.7,1.7,0,0,1-1.125-.431,1.42,1.42,0,0,1-.509-1.142A1.49,1.49,0,0,1,781.251,199.47Z"
                    transform="translate(-431.44 -179.207)" fill="#151b3d" />
            </g>
            <g transform="translate(275.601 142.778)">
                <path d="M240.932,129.6h-25.1V118.074h61.775V129.6h-25.1v49.948H240.932Z"
                    transform="translate(-215.836 -109.93)" fill="#151b3d" />
                <path
                    d="M279.88,168.02h42.47v11.528H268.3V118.074H322.35V129.6H279.88v13.447h38.608l-3.86,11.526H279.88Z"
                    transform="translate(-198.8 -109.93)" fill="#151b3d" />
                <path
                    d="M345.816,118.074h23.164V129.6H345.816a18.648,18.648,0,0,0-13.649,5.629,19.134,19.134,0,0,0,0,27.164,18.646,18.646,0,0,0,13.649,5.627h23.164v11.528H345.816a30.7,30.7,0,0,1-21.834-52.463A29.83,29.83,0,0,1,345.816,118.074Z"
                    transform="translate(-183.658 -109.93)" fill="#151b3d" />
                <path
                    d="M373.144,154.574v24.974H361.561V118.074h11.583v24.974h34.748V118.074h11.582v61.474H407.892V154.574Z"
                    transform="translate(-168.515 -109.93)" fill="#151b3d" />
                <path d="M422.69,139.743v41.8H411.107V111.926L461.3,161.872v-41.8h11.583v69.618Z"
                    transform="translate(-152.426 -111.926)" fill="#151b3d" />
                <path
                    d="M494.456,179.548a30.7,30.7,0,0,1-21.834-52.463,30.8,30.8,0,1,1,43.667,43.454A29.83,29.83,0,0,1,494.456,179.548Zm0-11.528a19.21,19.21,0,1,0-13.649-32.791,19.209,19.209,0,0,0,13.649,32.791Z"
                    transform="translate(-135.391 -109.93)" fill="#151b3d" />
                <path
                    d="M516.028,118.074H558.5q19.3,0,19.305,18.251,0,7.992-3.707,12.486,3.708,4.5,3.707,12.487,0,18.251-19.305,18.251H516.028Zm11.583,24.974H558.5q7.722,0,7.722-6.723T558.5,129.6H527.611Zm0,11.526V168.02H558.5q7.722,0,7.722-6.723t-7.722-6.723Z"
                    transform="translate(-118.355 -109.93)" fill="#da000d" />
                <path
                    d="M568.489,118.074H607.1q19.3,0,19.3,18.251,0,15.944-14.748,17.942l14.67,25.281h-13.4L598.45,154.574H580.072v24.974H568.489ZM580.072,129.6v13.447H607.1q7.722,0,7.722-6.723T607.1,129.6Z"
                    transform="translate(-101.319 -109.93)" fill="#da000d" />
                <path d="M612.528,181.441l40.115-69.2,40.115,69.2Zm20.038-11.528H672.72l-20.076-34.578Z"
                    transform="translate(-87.019 -111.822)" fill="#da000d" />
                <path d="M684.995,179.548H673.411V118.074h11.583Z" transform="translate(-67.248 -109.93)"
                    fill="#da000d" />
                <path d="M699.569,139.743v41.8H687.984V111.926l50.193,49.946v-41.8H749.76v69.618Z"
                    transform="translate(-62.516 -111.926)" fill="#da000d" />
                <path
                    d="M759.752,118.074h38.608V129.6H759.752q-7.724,0-7.723,6.724t7.723,6.723h19.3q19.3,0,19.3,18.249t-19.3,18.251H740.445V168.02h38.611q7.722,0,7.722-6.723t-7.722-6.723h-19.3q-19.307,0-19.307-18.249T759.752,118.074Z"
                    transform="translate(-45.48 -109.93)" fill="#da000d" />
            </g>
            <line x2="364.954" y2="0.001" transform="translate(300.647 230.273)" fill="#161a3e" stroke="#da0010"
                stroke-miterlimit="10" stroke-width="1" />
            <line y1="0.035" x2="363.108" transform="translate(665.604 230.254)" fill="#161a3e" stroke="#161a3e"
                stroke-miterlimit="10" stroke-width="1" />
            <g transform="translate(881.903 132.333)">
                <rect width="11.048" height="10.442" fill="#151b3d" />
            </g><text transform="translate(213.112 89.002)" fill="#161615" font-size="22"
                font-family="SegoeUI, Segoe UI">
                <tspan x="0" y="0"> </tspan>
            </text>
        </g>
    </g>
</svg>